<?xml version="1.0" encoding="utf-8"?>
<svg viewBox="0 0 128 128" xmlns="http://www.w3.org/2000/svg">
  <rect width="124" height="124" x="2" y="2" fill="#363d52" stroke="#212532" stroke-width="4" rx="14" transform="matrix(0.9999999999999999, 0, 0, 0.9999999999999999, -3.552713678800501e-15, 0)"/>
  <g fill="#fff" transform="matrix(0.10100000351667403, 0, 0, 0.10100000351667403, 12.322000503540032, 12.322000503540036)">
    <path d="M105 673v33q407 354 814 0v-33z"/>
    <path fill="#478cbf" d="m105 673 152 14q12 1 15 14l4 67 132 10 8-61q2-11 15-15h162q13 4 15 15l8 61 132-10 4-67q3-13 15-14l152-14V427q30-39 56-81-35-59-83-108-43 20-82 47-40-37-88-64 7-51 8-102-59-28-123-42-26 43-46 89-49-7-98 0-20-46-46-89-64 14-123 42 1 51 8 102-48 27-88 64-39-27-82-47-48 49-83 108 26 42 56 81zm0 33v39c0 276 813 276 814 0v-39l-134 12-5 69q-2 10-14 13l-162 11q-12 0-16-11l-10-65H446l-10 65q-4 11-16 11l-162-11q-12-3-14-13l-5-69z"/>
    <path d="M483 600c0 34 58 34 58 0v-86c0-34-58-34-58 0z"/>
    <circle cx="725" cy="526" r="90"/>
    <circle cx="299" cy="526" r="90"/>
  </g>
  <g fill="#414042" transform="matrix(0.10100000351667403, 0, 0, 0.10100000351667403, 12.322000503540032, 12.322000503540036)">
    <circle cx="307" cy="532" r="60"/>
    <circle cx="717" cy="532" r="60"/>
  </g>
  <path style="fill: rgb(216, 216, 216); stroke: rgb(0, 0, 0);" d="M 64.035 1.884 C 52.882 4.571 43.05 9.596 33.761 13.625 C 27.364 16.399 20.417 19.54 16.04 23.231 C 12.676 26.068 9.726 29.001 6.442 31.77 C 5.004 32.981 -0.072 41.085 2.748 42.444 C 5.89 43.958 22.368 42.719 25.639 42.088 C 40.229 39.276 48.507 32.954 53.698 26.077 C 58.933 19.14 59.604 10.319 59.604 4.019" transform="matrix(0.9999999999999999, 0, 0, 0.9999999999999999, -3.552713678800501e-15, 0)"/>
  <path style="fill: rgb(216, 216, 216); stroke: rgb(0, 0, 0);" d="M 114.175 0.52 C 106.062 7.59 90.703 11.726 81.396 18.68 C 63.418 32.113 45.612 45.681 27.507 58.997 C 21.008 63.777 16.469 69.845 9.728 74.251 C 9.222 74.582 3.758 77.974 4.729 78.61 C 6.201 79.572 13.796 78.127 15.284 77.883 C 25.221 76.259 34.405 74.585 43.063 70.983 C 68.696 60.318 78.762 40.491 93.063 24.128 C 96.446 20.259 101.655 16.653 105.841 13.232 C 107.754 11.67 111.397 9.719 111.397 7.783" transform="matrix(0.9999999999999999, 0, 0, 0.9999999999999999, -3.552713678800501e-15, 0)"/>
  <path style="fill: rgb(216, 216, 216); stroke: rgb(0, 0, 0);" d="M 119.633 6.318 C 106.791 23.396 95.358 41.243 80.854 57.141 C 71.691 67.185 61.942 77.381 51.411 86.134 C 38.699 96.701 21.732 98.185 7.607 104.894 C -3.347 110.097 11.86 115.966 16.943 117.173 C 27.291 119.631 36.82 116.792 45.308 111.033 C 55.299 104.254 66.949 99.614 77.264 92.614 C 86.219 86.538 95.282 79.819 103.835 73.172 C 109.28 68.939 114.626 64.777 120.351 60.893 C 122.112 59.698 124.501 57.141 126.455 57.141" transform="matrix(0.9999999999999999, 0, 0, 0.9999999999999999, -3.552713678800501e-15, 0)"/>
  <path style="fill: rgb(216, 216, 216); stroke: rgb(0, 0, 0);" d="M 124.408 93.296 C 116.925 94.727 110.186 97.451 103.601 99.654 C 96.662 101.976 89.468 104.104 82.454 106.339 C 72.971 109.361 62.08 112.051 51.755 114.328 C 45.81 115.64 40.224 116.676 34.019 117.589 C 27.991 118.475 22.412 119.508 17.305 121.339 C 16.808 121.517 10.499 124.359 12.871 124.926 C 14.451 125.303 17.452 125.089 19.01 125.089 C 21.284 125.089 23.579 125.236 25.832 125.089 C 29.44 124.854 33.898 124.388 37.429 123.947 C 50.209 122.354 62.965 119.855 75.291 117.589 C 86.495 115.529 98.9 114.261 108.718 110.741 C 111.04 109.909 112.545 109.06 114.175 107.969 C 115.183 107.295 115.531 106.466 116.563 105.85 C 120.439 103.534 129.336 96.956 123.726 94.274" transform="matrix(0.9999999999999999, 0, 0, 0.9999999999999999, -3.552713678800501e-15, 0)"/>
  <text style="white-space: pre; fill: rgb(51, 51, 51); font-family: Arial, sans-serif; font-size: 28px;" x="10.142" y="32.847" transform="matrix(1.8432700634002683, 0, 0, 2.604396104812622, 11.913123130798333, 5.533574104309082)">BG</text>
</svg>